<?xml version="1.0" encoding="UTF-8"?>
<svg width="64px" height="64px" viewBox="0 0 64 64" version="1.1" xmlns="http://www.w3.org/2000/svg" xmlns:xlink="http://www.w3.org/1999/xlink">
    <!-- Generator: Sketch 52.6 (67491) - http://www.bohemiancoding.com/sketch -->
    <title>assets/ico/block</title>
    <desc>Created with Sketch.</desc>
    <g id="Symbols" stroke="none" stroke-width="1" fill="none" fill-rule="evenodd">
        <g id="assets/ico/block" fill-rule="nonzero">
            <g>
                <path d="M50.133375,1.066625 L55.46675,1.066625 C57.23425,1.066625 58.66675,2.499125 58.66675,4.266625 L58.66675,45.866625 C58.66675,47.634125 57.23425,49.066625 55.46675,49.066625 L8.533375,49.066625 C6.765875,49.066625 5.333375,47.634125 5.333375,45.866625 L5.333375,4.266625 C5.333375,2.499125 6.765875,1.066625 8.533375,1.066625 L50.133375,1.066625 Z" id="Shape" fill="#6C7DE3"></path>
                <g id="Group" transform="translate(12.250000, 6.375000)" fill="#FFFFFF">
                    <path d="M11.40225,6.90925 L8.20225,4.915625 C9.144125,3.420125 8.695,1.44475 7.199625,0.502875 C5.70425,-0.439 3.72875,0.010125 2.786875,1.5055 C2.36025,2.183875 2.203375,2.99675 2.346375,3.785 C0.647125,4.26925 -0.338375,6.038875 0.14475,7.739125 C0.629,9.438375 2.398625,10.423875 4.098875,9.94075 C4.869,9.721 5.52825,9.221875 5.9485,8.539125 L9.4685,10.726875 L26.814625,21.52475 L31.302125,24.31725 C30.36025,25.81275 30.809375,27.788125 32.30475,28.73 C33.80025,29.671875 35.775625,29.22275 36.7175,27.727375 C37.144125,27.049 37.301,26.236125 37.158,25.447875 C38.85825,24.964625 39.843875,23.194 39.360625,21.49475 C38.877375,19.7945 37.10675,18.808875 35.4075,19.292125 C34.63625,19.511875 33.976,20.012125 33.556875,20.69475 L29.396875,18.103875 L11.40225,6.90925 Z" id="Shape"></path>
                    <path d="M28.09775,6.90925 L31.29775,4.915625 C30.355875,3.420125 30.805,1.44475 32.300375,0.502875 C33.795875,-0.439 35.77125,0.010125 36.713125,1.5055 C37.13975,2.183875 37.296625,2.99675 37.153625,3.785 C38.852875,4.26925 39.838375,6.038875 39.35525,7.739125 C38.872,9.439375 37.101375,10.423875 35.401125,9.94075 C34.631,9.721 33.97175,9.221875 33.5515,8.539125 L30.0315,10.726875 L12.685375,21.52475 L8.197875,24.31725 C9.13975,25.81275 8.690625,27.788125 7.19525,28.73 C5.69975,29.671875 3.724375,29.22275 2.7825,27.727375 C2.355875,27.049 2.199,26.236125 2.342,25.447875 C0.64175,24.964625 -0.343875,23.194 0.139375,21.49475 C0.622625,19.7955 2.39325,18.808875 4.0925,19.292125 C4.86375,19.511875 5.524,20.012125 5.943125,20.69475 L10.103125,18.103875 L28.09775,6.90925 Z" id="Shape"></path>
                </g>
                <path d="M13.866625,58.666625 L50.13325,58.666625 C51.311875,58.666625 52.266625,59.62125 52.266625,60.8 C52.266625,61.978625 51.312,62.933375 50.13325,62.933375 L13.866625,62.933375 C12.688,62.933375 11.73325,61.97875 11.73325,60.8 C11.733375,59.621375 12.688,58.666625 13.866625,58.666625 Z" id="Shape" fill="#FFFFFF"></path>
                <polygon id="Shape" fill="#FFFFFF" points="43.733375 58.666625 38.4 49.066625 25.6 49.066625 20.266625 58.666625"></polygon>
                <path d="M5.333375,40.533375 L58.66675,40.533375 L58.66675,45.86675 C58.66675,47.63425 57.23425,49.06675 55.46675,49.06675 L8.533375,49.06675 C6.765875,49.06675 5.333375,47.63425 5.333375,45.86675 L5.333375,40.533375 Z" id="Shape" fill="#FFFFFF"></path>
                <path d="M42.666625,19.925375 C42.675125,14.034125 37.906125,9.25225 32.014875,9.24375 C26.123625,9.23525 21.34175,14.00425 21.33325,19.8955 C21.329,23.257625 22.90975,26.425625 25.599875,28.44375 L25.599875,33.792 L38.399875,33.792 L38.399875,28.44375 C41.08475,26.43525 42.666625,23.278875 42.666625,19.925375 Z" id="Shape" fill="#FFC625"></path>
                <g id="Group" transform="translate(25.500000, 17.000000)" fill="#6C7DE3">
                    <path d="M8.633375,1.133375 L12.9,0.06675 L12.9,2.2075 C12.9,3.381875 11.9485,4.333375 10.774125,4.333375 L10.75925,4.333375 C9.584875,4.333375 8.633375,3.381875 8.633375,2.2075 L8.633375,1.133375 Z" id="Shape"></path>
                    <path d="M0.113875,0.081625 L4.366625,1.133375 L4.366625,2.213875 C4.36775,3.386125 3.419375,4.337625 2.247125,4.34075 C1.07275,4.344 0.117,3.394625 0.11375,2.22025 C0.11375,2.218125 0.11375,2.216 0.11375,2.213875 L0.11375,0.081625 L0.113875,0.081625 Z" id="Shape"></path>
                </g>
                <path d="M7.466625,54.4 L13.866625,54.4 L13.866625,52.266625 L7.466625,52.266625 C4.522625,52.263375 2.1365,49.87725 2.13325,46.93325 L2.13325,38.4 L0,38.4 L0,46.933375 C0.00425,51.054875 3.345125,54.39575 7.466625,54.4 Z" id="Shape" fill="#000000"></path>
                <polygon id="Rectangle-path" fill="#000000" points="0 34.133375 2.133375 34.133375 2.133375 36.26675 0 36.26675"></polygon>
                <polygon id="Rectangle-path" fill="#000000" points="30.933375 43.733375 33.06675 43.733375 33.06675 45.86675 30.933375 45.86675"></polygon>
                <path d="M55.466625,50.133375 C57.822875,50.133375 59.73325,48.223 59.73325,45.86675 L59.73325,4.26675 C59.733375,1.910375 57.822875,0 55.466625,0 L8.533375,0 C6.177125,0 4.26675,1.910375 4.26675,4.266625 L4.26675,45.866625 C4.26675,48.222875 6.177125,50.13325 8.533375,50.13325 L23.78675,50.13325 L19.638375,57.6 L13.866625,57.6 C12.099125,57.6 10.666625,59.0325 10.666625,60.8 C10.666625,62.5675 12.099125,64 13.866625,64 L50.13325,64 C51.90075,64 53.33325,62.5675 53.33325,60.8 C53.33325,59.0325 51.90075,57.6 50.13325,57.6 L44.3605,57.6 L40.21325,50.133375 L55.466625,50.133375 Z M8.533375,2.133375 L55.46675,2.133375 C56.645375,2.133375 57.600125,3.088 57.600125,4.26675 L57.600125,39.46675 L6.4,39.46675 L6.4,4.26675 C6.4,3.088 7.354625,2.133375 8.533375,2.133375 Z M6.4,45.866625 L6.4,41.6 L57.6,41.6 L57.6,45.866625 C57.6,47.04525 56.645375,48 55.466625,48 L8.533375,48 C7.354625,48 6.4,47.045375 6.4,45.866625 Z M51.2,60.8 C51.2,61.38875 50.722125,61.866625 50.133375,61.866625 L13.866625,61.866625 C13.277875,61.866625 12.8,61.38875 12.8,60.8 C12.8,60.21125 13.277875,59.733375 13.866625,59.733375 L50.13325,59.733375 C50.722125,59.733375 51.2,60.21125 51.2,60.8 Z M41.92,57.6 L22.08,57.6 L26.22825,50.133375 L37.77275,50.133375 L41.92,57.6 Z" id="Shape" fill="#000000"></path>
                <polygon id="Rectangle-path" fill="#000000" points="61.866625 9.6 64 9.6 64 27.733375 61.866625 27.733375"></polygon>
                <polygon id="Rectangle-path" fill="#000000" points="61.866625 29.866625 64 29.866625 64 32 61.866625 32"></polygon>
                <path d="M36.274125,22.4 C38.03525,22.39575 39.462375,20.9685 39.466625,19.2075 L39.466625,17.06675 C39.466625,16.478 38.98875,16.000125 38.4,16.000125 C38.3125,16.000125 38.225125,16.01075 38.14075,16.032125 L33.874125,17.09875 C33.3995,17.217125 33.066625,17.643875 33.066625,18.133375 L33.066625,19.2075 C33.070875,20.974875 34.506625,22.40425 36.274125,22.4 Z M35.2,18.966375 L37.333375,18.433 L37.333375,19.207375 C37.333375,19.796125 36.8555,20.274 36.26675,20.274 C35.678,20.274 35.200125,19.796125 35.200125,19.207375 L35.200125,18.966375 L35.2,18.966375 Z" id="Shape" fill="#000000"></path>
                <path d="M25.486875,21.47625 C26.083125,22.074625 26.894875,22.409625 27.739625,22.4075 L27.751375,22.4075 C29.508125,22.397875 30.929,20.972875 30.93325,19.215 L30.93325,18.133375 C30.93325,17.64275 30.598375,17.215 30.122625,17.097625 L25.869875,16.045875 C25.298125,15.904 24.72,16.253875 24.578125,16.825625 C24.557875,16.909875 24.54725,16.99525 24.54725,17.081625 L24.54725,19.215 C24.545125,20.064 24.88325,20.878875 25.486875,21.47625 Z M26.6805,18.44375 L28.8,18.9685 L28.8,19.214875 C28.79575,19.79725 28.326375,20.26875 27.744,20.274125 C27.462375,20.272 27.193625,20.161 26.992,19.96475 C26.7925,19.767375 26.6805,19.498625 26.6805,19.218125 L26.6805,18.44375 Z" id="Shape" fill="#000000"></path>
                <path d="M29.137125,27.3365 L32,26.382875 L34.862875,27.3365 L35.537,25.309875 L32.337,24.24325 C32.118375,24.17075 31.8815,24.17075 31.662875,24.24325 L28.462875,25.309875 L29.137125,27.3365 Z" id="Shape" fill="#000000"></path>
                <path d="M13.226625,16.845875 C14.878875,17.871 17.015375,17.65225 18.4255,16.3125 L20.499125,17.6 C20.06175,19.75575 20.24425,21.9915 21.025,24.048 L18.42125,25.6715 C16.71675,24.044875 14.015875,24.108875 12.38925,25.813375 C11.04525,27.221375 10.8255,29.361125 11.85375,31.013375 C12.2505,31.650125 12.8105,32.169625 13.475125,32.5185 C13.527375,34.45125 14.878875,36.103625 16.762625,36.53875 C17.082625,36.61125 17.410125,36.6465 17.738625,36.645375 C20.094875,36.642125 22.002125,34.728625 21.998875,32.37225 C21.99775,31.94025 21.931625,31.510375 21.802625,31.098625 L24.53325,29.405875 L24.53325,33.792 C24.53325,34.38075 25.011125,34.858625 25.599875,34.858625 L38.399875,34.858625 C38.988625,34.858625 39.4665,34.38075 39.4665,33.792 L39.4665,29.406875 L42.197125,31.106125 C41.489875,33.353625 42.739,35.749375 44.9875,36.4565 C45.39925,36.586625 45.829125,36.65275 46.261125,36.65275 C46.589625,36.653875 46.917125,36.618625 47.237125,36.546125 C49.120875,36.112 50.473375,34.458625 50.524625,32.525875 C51.189125,32.177125 51.748125,31.658625 52.146,31.021875 C53.392875,29.021875 52.78275,26.390375 50.78275,25.1435 C49.129375,24.112 46.9875,24.332875 45.5785,25.679 L42.97475,24.05975 C43.7555,22.00325 43.938,19.7675 43.500625,17.61175 L45.5785,16.319 C47.283,17.94675 49.983875,17.884875 51.6105,16.180375 C52.956625,14.77125 53.176375,12.6295 52.146,10.976125 C51.748125,10.340375 51.18925,9.820875 50.524625,9.47325 C50.5065,8.723375 50.28675,7.991625 49.891,7.35375 C48.644125,5.354875 46.0115,4.744625 44.012625,5.991625 C42.36675,7.018875 41.620125,9.027375 42.197125,10.880125 L40.54275,11.9095 C36.143875,7.191625 28.752875,6.932375 24.035,11.331375 C23.8355,11.517 23.6425,11.71 23.456875,11.9095 L21.8025,10.880125 C22.508625,8.631625 21.2585,6.236875 19.011,5.53075 C17.153875,4.94725 15.136875,5.695 14.108625,7.348375 C13.712875,7.98625 13.493125,8.718 13.475,9.467875 C12.8105,9.815625 12.2515,10.335125 11.853625,10.97075 C10.614375,12.97275 11.22775,15.601125 13.226625,16.845875 Z M19.889125,29.786625 C19.388875,30.098125 19.236375,30.755125 19.54675,31.255375 C20.168625,32.257 19.861375,33.57325 18.860875,34.196125 C17.85925,34.818 16.543,34.51075 15.920125,33.50925 C15.643875,33.062375 15.544625,32.526875 15.64275,32.010625 C15.73875,31.473 15.413375,30.950375 14.888625,30.798875 C14.382,30.658125 13.94575,30.33275 13.66725,29.886875 C13.045375,28.88525 13.352625,27.569 14.353125,26.946125 C15.35475,26.32425 16.671,26.6315 17.293875,27.632 C17.605375,28.13225 18.262375,28.28475 18.762625,27.974375 L21.962625,25.985 C22.338125,26.591875 22.769,27.163625 23.249,27.691625 L19.889125,29.786625 Z M45.246875,27.973375 C45.747125,28.28375 46.40425,28.13125 46.715625,27.631 C47.3385,26.629375 48.654875,26.32225 49.656375,26.945125 C50.658,27.568 50.965125,28.884375 50.34225,29.885875 C50.06275,30.33175 49.627625,30.656 49.120875,30.79675 C48.596125,30.94825 48.27075,31.470875 48.36675,32.0085 C48.464875,32.525875 48.365625,33.06025 48.088375,33.50825 C47.4655,34.509875 46.149125,34.817 45.147625,34.194125 C44.146125,33.57125 43.838875,32.254875 44.46175,31.253375 C44.772125,30.753125 44.619625,30.096 44.119375,29.784625 L40.762625,27.696125 C41.242625,27.166 41.6735,26.59325 42.049,25.984125 L45.246875,27.973375 Z M44.11525,12.197375 C44.6155,11.885875 44.769125,11.228875 44.45875,10.728625 C44.45875,10.728625 44.45875,10.7275 44.457625,10.7275 C43.83575,9.725875 44.143,8.409625 45.1445,7.78675 C46.146125,7.164875 47.462375,7.472125 48.08525,8.473625 C48.3615,8.921625 48.46075,9.456 48.362625,9.973375 C48.266625,10.511 48.592,11.033625 49.11675,11.185125 C49.623375,11.325875 50.058625,11.65125 50.338125,12.096 C50.96,13.097625 50.65275,14.413875 49.65125,15.03675 C48.649625,15.659625 47.333375,15.351375 46.7105,14.349875 C46.399,13.849625 45.742,13.697125 45.24175,14.0075 L42.856625,15.49225 C42.5835,14.832 42.251875,14.197375 41.864625,13.59675 L44.11525,12.197375 Z M32,10.325375 C37.297125,10.32 41.594625,14.609125 41.601125,19.905125 C41.604375,22.929125 40.181375,25.77825 37.76,27.5915 C37.49125,27.793125 37.333375,28.108875 37.333375,28.444875 L37.333375,32.725375 L35.2,32.725375 L35.2,29.525375 L33.066625,29.525375 L33.066625,32.725375 L30.93325,32.725375 L30.93325,29.525375 L28.8,29.525375 L28.8,32.725375 L26.666625,32.725375 L26.666625,28.44375 C26.666625,28.10775 26.50875,27.792 26.24,27.590375 C22.001125,24.413875 21.14025,18.403125 24.31675,14.16425 C26.129125,11.745125 28.977125,10.322125 32,10.325375 Z M13.666125,12.096 C13.945625,11.65125 14.38075,11.325875 14.8875,11.185125 C15.41225,11.033625 15.737625,10.511 15.641625,9.973375 C15.5435,9.456 15.64275,8.920625 15.92,8.473625 C16.541875,7.472 17.85925,7.164875 18.86075,7.78675 C19.862375,8.408625 20.1695,9.726 19.546625,10.7275 C19.235125,11.22775 19.38775,11.885875 19.888,12.19625 C19.888,12.19625 19.889125,12.19625 19.889125,12.197375 L22.13875,13.596875 C21.7515,14.197375 21.419875,14.832125 21.14675,15.492375 L18.761625,14.007625 C18.261375,13.69725 17.60425,13.84975 17.292875,14.35 C16.671,15.351625 15.353625,15.65875 14.352125,15.036875 C13.3515,14.413875 13.04425,13.097625 13.666125,12.096 Z" id="Shape" fill="#000000"></path>
            </g>
        </g>
    </g>
</svg>