<?xml version="1.0" encoding="UTF-8"?>
<svg width="65px" height="64px" viewBox="0 0 65 64" version="1.1" xmlns="http://www.w3.org/2000/svg" xmlns:xlink="http://www.w3.org/1999/xlink">
    <!-- Generator: Sketch 52.6 (67491) - http://www.bohemiancoding.com/sketch -->
    <title>assets/ico/find</title>
    <desc>Created with Sketch.</desc>
    <g id="Symbols" stroke="none" stroke-width="1" fill="none" fill-rule="evenodd">
        <g id="assets/ico/find" fill-rule="nonzero">
            <g>
                <polygon id="Rectangle-path" fill="#FFC625" transform="translate(12.767179, 51.290190) rotate(135.000000) translate(-12.767179, -51.290190) " points="10.5728372 44.7406551 14.9738883 44.7365015 14.9615217 57.8397257 10.5604707 57.8438794"></polygon>
                <polygon id="Rectangle-path" fill="#6C7DE3" transform="translate(8.876710, 55.152162) rotate(135.000000) translate(-8.876710, -55.152162) " points="5.57798255 52.9714063 12.1795591 52.9651759 12.1754369 57.3329173 5.57386037 57.3391477"></polygon>
                <polygon id="Shape" fill="#FFFFFF" points="4.98954191 55.9245354 1.10373294 56.6971969 1.88094542 62.1075906 7.32219298 62.880252 8.09927875 59.0165669"></polygon>
                <polygon id="Shape" fill="#FFFFFF" points="44.4515107 13.5962205 53.7016569 4.39874016 59.920117 4.39874016 59.920117 10.5817953 50.0269396 20.4186457 22.0400682 48.2451654 17.426462 52.8335118 11.2080019 46.6504567 16.3513645 41.536378"></polygon>
                <polyline id="Shape" fill="#FFFFFF" points="59.920117 4.39874016 53.7016569 4.39874016 11.2080019 46.6504567 14.3177388 49.7414803 18.7697953 45.3147717 49.1892885 15.0684724 59.920117 4.39874016"></polyline>
                <rect id="Rectangle-path" fill="#FFFFFF" x="53.7016569" y="4.39874016" width="6.21846004" height="6.18305512"></rect>
                <polygon id="Rectangle-path" fill="#FFC625" transform="translate(52.112165, 51.289274) rotate(135.000000) translate(-52.112165, -51.289274) " points="45.5126492 49.1116339 58.7158023 49.0991731 58.7116801 53.4669145 45.5085271 53.4793753"></polygon>
                <polygon id="Rectangle-path" fill="#6C7DE3" transform="translate(56.001119, 55.152550) rotate(135.000000) translate(-56.001119, -55.152550) " points="53.8036854 51.8788209 58.2047364 51.8746672 58.1985531 58.4262794 53.7975021 58.430433"></polygon>
                <polygon id="Shape" fill="#FFFFFF" points="59.8883138 55.9245354 63.7741228 56.6971969 62.9969103 62.1075906 57.5556628 62.880252 56.7784503 59.0165669"></polygon>
                <polygon id="Shape" fill="#FFFFFF" points="20.426345 13.5962205 11.1760721 4.39874016 4.95773879 4.39874016 4.95773879 10.5817953 14.8509162 20.4186457 42.8377875 48.2451654 47.4513938 52.8335118 53.6698538 46.6504567 48.5263645 41.536378"></polygon>
                <polyline id="Shape" fill="#FFFFFF" points="4.95773879 4.39874016 11.1760721 4.39874016 53.6698538 46.6504567 50.5599903 49.7414803 46.1080604 45.3147717 15.6885673 15.0684724 4.95773879 4.39874016"></polyline>
                <rect id="Rectangle-path" fill="#FFFFFF" x="4.95773879" y="4.39874016" width="6.21846004" height="6.18305512"></rect>
                <polygon id="Shape" fill="#FFC625" points="41.5077583 13.1426772 45.6298733 1.11974803 41.2329337 1.11974803 37.9351657 5.49165354 34.6373977 1.11974803 30.2404581 1.11974803 26.9426901 5.49165354 23.644922 1.11974803 19.2479825 1.11974803 23.3700975 13.1426772"></polygon>
                <path d="M40.9118616,49.3709606 L32.4388012,53.5833701 L23.9657407,49.3709606 C18.3794152,46.5936378 14.8507895,40.9166614 14.8507895,34.7062677 L14.8507895,15.3286299 L32.4388012,9.86368504 L50.0268129,15.3286299 L50.0268129,34.7062677 C50.0269396,40.9166614 46.4983138,46.5936378 40.9118616,49.3709606 Z" id="Shape" fill="#6C7DE3"></path>
                <polygon id="Shape" fill="#6C7DE3" points="32.4389279 14.2355906 19.2479825 18.607622 19.2479825 30.6305512 32.4389279 30.6305512"></polygon>
                <polygon id="Shape" fill="#FFFFFF" points="45.6298733 30.6305512 45.6298733 18.607622 32.4389279 14.2355906 32.4389279 30.6305512"></polygon>
                <path d="M32.4389279,30.6305512 L32.4389279,48.1184252 L39.5533236,44.5815433 C43.2775828,42.7299528 45.63,38.9461417 45.63,34.8057953 L45.63,30.6305512 L32.4389279,30.6305512 Z" id="Shape" fill="#6C7DE3"></path>
                <path d="M19.2479825,30.6305512 L19.2479825,34.8057953 C19.2479825,38.9460157 21.6003996,42.7299528 25.3246589,44.5815433 L32.4390546,48.1184252 L32.4390546,30.6305512 L19.2479825,30.6305512 Z" id="Shape" fill="#FFFFFF"></path>
                <path d="M46.7291715,18.607622 C46.7291715,18.1375748 46.4258382,17.720063 45.9773002,17.5715276 L32.7863548,13.199622 C32.5609454,13.1241575 32.317037,13.1241575 32.0916277,13.199622 L18.9006823,17.5715276 C18.4521442,17.720189 18.1488109,18.1377008 18.1488109,18.607622 L18.1488109,34.8046614 C18.1323392,39.3635276 20.7254971,43.5343622 24.8332943,45.5585512 L31.9476901,49.1019843 C32.2565984,49.256063 32.6215107,49.256063 32.9304191,49.1019843 L40.0448148,45.5639685 C44.1548928,43.5386457 46.7480507,39.3656693 46.7292982,34.8045354 L46.7291715,18.607622 Z M44.5307018,29.5375118 L33.5382261,29.5375118 L33.5382261,15.7515591 L44.5307018,19.3955276 L44.5307018,29.5375118 Z M31.3396296,15.7515591 L31.3396296,29.5375118 L20.347154,29.5375118 L20.347154,19.3956535 L31.3396296,15.7515591 Z M20.347154,34.8046614 L20.3470929,31.7234646 L31.3396296,31.7234646 L31.3396296,46.3498583 L25.8158967,43.6031496 C22.4543957,41.9473386 20.3339766,38.5339213 20.347154,34.8046614 Z M39.0618324,43.6031496 L33.5380994,46.3498583 L33.5380994,31.7234646 L44.5306373,31.7234646 L44.530575,34.8046614 C44.5438791,38.5339213 42.4223197,41.9473386 39.0618324,43.6031496 Z" id="Shape" fill="#000000"></path>
                <rect id="Rectangle-path" fill="#000000" x="31.3396296" y="4.39874016" width="2.19846979" height="2.18595276"></rect>
                <path d="M63.9873684,55.6260787 L60.4279532,54.9177953 L56.7784503,51.287937 L59.109961,48.9685669 C59.5386062,48.5423622 59.5386062,47.8493228 59.109961,47.4231181 L56.0012378,44.3310866 C55.5725926,43.9048819 54.8755848,43.9048819 54.4469396,44.3310866 L53.6687135,45.1048819 L49.835614,41.2936063 C50.6885965,39.2005039 51.1261111,36.9642835 51.1261111,34.7061417 L51.1261111,20.8711811 L60.6973294,11.3544567 C60.9039864,11.1501102 61.0194152,10.8713071 61.0194152,10.5816693 L61.0194152,4.39874016 C61.0194152,3.79540157 60.5269103,3.30570079 59.920117,3.30570079 L53.7016569,3.30570079 C53.4103606,3.30570079 53.1300877,3.42047244 52.9244444,3.62595276 L44.1447563,12.3556535 L43.0543275,12.0178898 L46.6697466,1.47162205 C46.8653801,0.900031496 46.5576121,0.279181102 45.9827485,0.0846614173 C45.8694737,0.0463622047 45.7497368,0.0267086614 45.6298733,0.0267086614 L41.2329337,0.0267086614 C40.8866472,0.0267086614 40.5612671,0.188472441 40.3535965,0.463874016 L37.9352924,3.66966929 L35.5168616,0.464 C35.3090643,0.188598425 34.9836842,0.0268346457 34.6375244,0.0268346457 L30.2405848,0.0268346457 C29.8942982,0.0268346457 29.5689181,0.188598425 29.3612476,0.464 L26.9426901,3.66966929 L24.5242593,0.464 C24.316462,0.188598425 23.9910819,0.0268346457 23.644922,0.0268346457 L19.2479825,0.0268346457 C18.6411891,0.0268346457 18.1486842,0.516535433 18.1498246,1.12088189 C18.1498246,1.24006299 18.1695906,1.35911811 18.2081092,1.47174803 L21.8235283,12.0180157 L20.7330994,12.3557795 L11.9532846,3.62595276 C11.747768,3.42047244 11.4673684,3.30570079 11.1760721,3.30570079 L4.95773879,3.30570079 C4.35094542,3.30570079 3.85844055,3.79540157 3.85844055,4.39874016 L3.85844055,10.5817953 C3.85844055,10.8714331 3.9738694,11.1501102 4.18052632,11.3545827 L13.7517446,20.8713071 L13.7517446,34.7063937 C13.7517446,36.9645354 14.1892593,39.2007559 15.0422417,41.2938583 L11.2091423,45.1051339 L10.4309162,44.3313386 C9.99454191,43.9215118 9.3129922,43.9215118 8.87661793,44.3313386 L5.76789474,47.4233701 C5.33924951,47.8495748 5.33924951,48.5426142 5.76789474,48.9688189 L8.09940546,51.288189 L4.44774854,54.9180472 L0.890614035,55.6263307 C0.315750487,55.7366929 -0.071208577,56.2766614 0.0112768031,56.8526614 L0.788489279,62.2619213 C0.857797271,62.7428031 1.23804094,63.1210079 1.72180312,63.1899213 L7.16203704,63.9627087 C7.73918129,64.0447244 8.28110136,63.6632441 8.39538986,63.0949291 L9.10772904,59.5557795 L12.7626803,55.9249134 L15.0953314,58.2442835 C15.5239766,58.6704882 16.2209844,58.6704882 16.6496296,58.2442835 L19.7583528,55.152252 C20.1869981,54.7260472 20.1869981,54.0330079 19.7583528,53.6068031 L18.9811404,52.8330079 L22.194269,49.6393071 C22.6097368,49.8896378 23.0340741,50.1300157 23.474883,50.3485984 L31.9479435,54.5675591 C32.2568519,54.7216378 32.6217641,54.7216378 32.9306725,54.5675591 L41.4037329,50.3541417 C41.8434016,50.1355591 42.2688791,49.8950551 42.684347,49.6448504 L45.8974756,52.8385512 L45.1202632,53.6123465 C44.6916179,54.0385512 44.6916179,54.7315906 45.1202632,55.1577953 L48.2289864,58.2498268 C48.6576316,58.6760315 49.3546394,58.6760315 49.7832846,58.2498268 L52.1159357,55.9250394 L55.7665789,59.5559055 L56.4789181,63.0950551 C56.5932066,63.6633701 57.1351267,64.0448504 57.712271,63.9628346 L63.1525049,63.1900472 C63.6361404,63.1211339 64.0165107,62.7430551 64.0858187,62.2620472 L64.8630312,56.8527874 C64.9447563,56.2775433 64.560078,55.7387087 63.9873684,55.6260787 Z M52.1154288,46.6504567 L50.5611306,48.1959055 L47.5931774,45.2448504 C48.0450097,44.6524724 48.4571832,44.031622 48.8276706,43.3867087 L52.1154288,46.6504567 Z M50.9876218,14.8258268 L54.1567836,11.6747087 L57.2665205,11.6747087 L51.1261111,17.7801575 L51.1261111,15.3286299 C51.1218031,15.1526299 51.0745419,14.9799055 50.9876218,14.8258268 Z M58.8209454,9.48875591 L54.8009552,9.48875591 L54.8009552,5.49165354 L58.8209454,5.49165354 L58.8209454,9.48875591 Z M52.6024854,7.03722835 L52.6024854,10.1292598 L48.8826608,13.8279055 L46.5093372,13.0922835 L52.6024854,7.03722835 Z M20.7868226,2.2127874 L23.0952729,2.2127874 L26.0632261,6.14752756 C26.4633626,6.63067717 27.1800097,6.69946457 27.6659259,6.30274016 C27.7230702,6.25574803 27.7747661,6.20434646 27.8220273,6.14752756 L30.7899805,2.2127874 L34.0877485,2.2127874 L37.0557018,6.14752756 C37.4558382,6.63067717 38.1724854,6.69946457 38.6584016,6.30274016 C38.7155458,6.25574803 38.7672417,6.20434646 38.8145029,6.14752756 L41.7824561,2.2127874 L44.0909064,2.2127874 L40.9525341,11.3655433 L32.768616,8.82103937 C32.55423,8.75325984 32.3233723,8.75325984 32.1091131,8.82103937 L23.9197466,11.3655433 L20.7868226,2.2127874 Z M15.9951949,13.8279055 L12.2753704,10.1292598 L12.2753704,7.03722835 L18.3640838,13.0924094 L15.9951949,13.8279055 Z M10.0769006,5.49165354 L10.0769006,9.48875591 L6.05691033,9.48875591 L6.05691033,5.49165354 L10.0769006,5.49165354 Z M7.61120858,11.6747087 L10.7209454,11.6747087 L13.8901072,14.8258268 C13.8033138,14.9799055 13.7560526,15.1526299 13.7516179,15.3286299 L13.7516179,17.7801575 L7.61120858,11.6747087 Z M16.0567739,43.3714646 C16.4272612,44.016378 16.8394347,44.6371024 17.2912671,45.2296063 L14.3233138,48.1806614 L12.7624269,46.6504567 L16.0567739,43.3714646 Z M2.85265107,61.1412913 L2.33923977,57.5672441 L4.62792398,57.1114331 L6.9055848,59.376126 L6.44830409,61.6527874 L2.85265107,61.1412913 Z M8.09927875,57.4711181 L6.54384016,55.9256693 L9.653577,52.8336378 L11.2078752,54.3790866 L8.09927875,57.4711181 Z M15.8721637,55.9255433 L13.5417934,53.6084409 L10.4320565,50.5164094 L8.09940546,48.1960315 L9.6537037,46.6494488 L10.4309162,47.4222362 L16.6493762,53.6052913 L17.4265887,54.3780787 L15.8721637,55.9255433 Z M17.426462,51.288063 L15.8721637,49.7426142 L18.7302632,46.9007874 C19.2425341,47.424378 19.7866082,47.9150866 20.3604581,48.3708976 L17.426462,51.288063 Z M40.4206238,48.3938268 L32.4389279,52.3613228 L24.457232,48.3926929 C19.22923,45.8165669 15.929308,40.5078425 15.9500877,34.7062677 L15.9500877,16.1320315 L32.4388012,11.0091339 L48.9275146,16.1320315 L48.9275146,34.7062677 C48.9484211,40.5078425 45.648499,45.8165669 40.4203704,48.3926929 L40.4206238,48.3938268 Z M44.5208187,48.3751811 C45.0946686,47.9193701 45.6387427,47.4286614 46.1510136,46.9050709 L49.0091131,49.7468976 L47.4515205,51.288063 L44.5208187,48.3751811 Z M49.005692,55.9266772 L47.4513938,54.3800945 L48.2286062,53.6073071 L54.4470663,47.424252 L55.2242788,46.6514646 L56.778577,48.1980472 L54.4470663,50.5162835 L51.3373294,53.608315 L49.005692,55.9266772 Z M55.224152,52.8346457 L58.3338889,55.9266772 L56.7784503,57.472126 L53.6697271,54.3800945 L55.224152,52.8346457 Z M62.0252047,61.1412913 L58.4295517,61.6517795 L57.972271,59.376126 L60.2499318,57.1114331 L62.5396296,57.5672441 L62.0252047,61.1412913 Z" id="Shape" fill="#231F20"></path>
            </g>
        </g>
    </g>
</svg>