<?xml version="1.0" encoding="UTF-8"?>
<svg width="147px" height="26px" viewBox="0 0 147 26" version="1.1" xmlns="http://www.w3.org/2000/svg" xmlns:xlink="http://www.w3.org/1999/xlink">
    <!-- Generator: Sketch 52.6 (67491) - http://www.bohemiancoding.com/sketch -->
    <title>assets/ico/ovals</title>
    <desc>Created with Sketch.</desc>
    <g id="Symbols" stroke="none" stroke-width="1" fill="none" fill-rule="evenodd">
        <g id="assets/ico/ovals" fill="#6C7DE3" fill-rule="nonzero">
            <path d="M82.959853,-47.6445683 L86,-47.6445683 C86,-40.8214673 80.4045547,-35.2885099 73.5001678,-35.2885099 C66.5955139,-35.2885099 61,-40.8213995 61,-47.6445683 C61,-54.4672383 66.5956434,-60 73.5001678,-60 C80.4044252,-60 86,-54.4671706 86,-47.6445683 L82.959853,-47.6445683 Z M82.959853,-47.6445683 L79.9197059,-47.6445683 C79.9197059,-51.1531621 77.0445041,-53.9961232 73.5001678,-53.9961232 C69.9555311,-53.9961232 67.0802941,-51.153197 67.0802941,-47.6445683 C67.0802941,-44.1353788 69.9554646,-41.2923867 73.5001678,-41.2923867 C77.0445706,-41.2923867 79.9197059,-44.1354137 79.9197059,-47.6445683 L82.959853,-47.6445683 Z M82.959853,-7.21506498 L86,-7.21506498 C86,-0.391963984 80.4045547,5.14099341 73.5001678,5.14099341 C66.5955139,5.14099341 61,-0.391896228 61,-7.21506498 C61,-14.037735 66.5956434,-19.5704967 73.5001678,-19.5704967 C80.4044252,-19.5704967 86,-14.0376673 86,-7.21506498 L82.959853,-7.21506498 Z M82.959853,-7.21506498 L79.9197059,-7.21506498 C79.9197059,-10.7236588 77.0445041,-13.5666199 73.5001678,-13.5666199 C69.9555311,-13.5666199 67.0802941,-10.7236937 67.0802941,-7.21506498 C67.0802941,-3.70587549 69.9554646,-0.862883432 73.5001678,-0.862883432 C77.0445706,-0.862883432 79.9197059,-3.70591036 79.9197059,-7.21506498 L82.959853,-7.21506498 Z M82.959853,33.2144383 L86,33.2144383 C86,40.0375393 80.4045547,45.5704967 73.5001678,45.5704967 C66.5955139,45.5704967 61,40.0376071 61,33.2144383 C61,26.3917683 66.5956434,20.8590066 73.5001678,20.8590066 C80.4044252,20.8590066 86,26.391836 86,33.2144383 L82.959853,33.2144383 Z M82.959853,33.2144383 L79.9197059,33.2144383 C79.9197059,29.7058445 77.0445041,26.8628834 73.5001678,26.8628834 C69.9555311,26.8628834 67.0802941,29.7058096 67.0802941,33.2144383 C67.0802941,36.7236278 69.9554646,39.5666199 73.5001678,39.5666199 C77.0445706,39.5666199 79.9197059,36.7235929 79.9197059,33.2144383 L82.959853,33.2144383 Z M82.959853,73.6439416 L86,73.6439416 C86,80.4670426 80.4045547,86 73.5001678,86 C66.5955139,86 61,80.4671104 61,73.6439416 C61,66.8212716 66.5956434,61.2885099 73.5001678,61.2885099 C80.4044252,61.2885099 86,66.8213393 86,73.6439416 L82.959853,73.6439416 Z M82.959853,73.6439416 L79.9197059,73.6439416 C79.9197059,70.1353478 77.0445041,67.2923867 73.5001678,67.2923867 C69.9555311,67.2923867 67.0802941,70.1353129 67.0802941,73.6439416 C67.0802941,77.1531311 69.9554646,79.9961232 73.5001678,79.9961232 C77.0445706,79.9961232 79.9197059,77.1530962 79.9197059,73.6439416 L82.959853,73.6439416 Z" transform="translate(73.500000, 13.000000) rotate(-90.000000) translate(-73.500000, -13.000000) "></path>
        </g>
    </g>
</svg>